# xmcd CD database file
#
# Track frame offsets:
#	150
#	16822
#	52589
#	76435
#	99067
#	126586
#	143470
#	171258
#	189838
#	216838
#	240293
#	259041
#	281441
#
# Disc length: 3999 seconds
#
# Revision: 3
# Processed by: cddbd v1.5.2PL0 Copyright (c) Steve Scherf et al.
# Submitted via: CDex 1.70beta2
#
DISCID=9c0f9d0d
DTITLE=Twana Rhodes - Home (The U.F.O Sessions)
DYEAR=2009
DGENRE=Jazz
TTITLE0=Take me Back
TTITLE1=Child of Mine
TTITLE2=Keeping Time
TTITLE3=Bidin' my Time
TTITLE4=I Do
TTITLE5=Letter to the Devil
TTITLE6=Turn Out the Light
TTITLE7=Hide and Seek
TTITLE8=The Winged Man
TTITLE9=The Long Run
TTITLE10=Seed
TTITLE11=Cherish the People
TTITLE12=Sun
EXTD=YEAR: 2009
EXTT0=
EXTT1=
EXTT2=
EXTT3=
EXTT4=
EXTT5=
EXTT6=
EXTT7=
EXTT8=
EXTT9=
EXTT10=
EXTT11=
EXTT12=
PLAYORDER=
